Coordinates
version=1
nRows=14
nColumns=36
inDegrees=yes

Units are S.I. units (second, meters, Newtons, ...)
If the header above contains a line with 'inDegrees', this indicates whether rotational values are in degrees (yes) or radians (no).

endheader
time	pelvis_tilt	pelvis_list	pelvis_rotation	pelvis_tx	pelvis_ty	pelvis_tz	hip_flexion_r	hip_adduction_r	hip_rotation_r	knee_angle_r	knee_angle_r_beta	ankle_angle_r	subtalar_angle_r	mtp_angle_r	hip_flexion_l	hip_adduction_l	hip_rotation_l	knee_angle_l	knee_angle_l_beta	ankle_angle_l	subtalar_angle_l	mtp_angle_l	lumbar_extension	lumbar_bending	lumbar_rotation	arm_flex_r	arm_add_r	arm_rot_r	elbow_flex_r	pro_sup_r	arm_flex_l	arm_add_l	arm_rot_l	elbow_flex_l	pro_sup_l
      7.07000000	    -32.35146215	     -3.93166546	     -4.53353889	     -0.36714242	      0.62806642	     -0.57885456	    103.79306919	     -5.60333530	    -11.48614355	    101.64279026	      1.77400135	     31.90680498	    -13.09760885	     -7.49999987	    113.03730474	    -28.43051905	     12.77290142	     99.58011784	      1.73800093	     25.75736848	     17.05093606	     -7.49999987	    -38.57685269	      3.97883448	      6.43280201	     98.98954159	    -11.25501479	     20.87807762	    104.05311045	     99.23032742	     89.46335111	     -5.82879479	     20.92256606	    109.07530225	    105.46937154
      7.08000000	    -32.31665706	     -3.98233965	     -4.43293716	     -0.36666435	      0.63183918	     -0.57808880	    103.29886672	     -5.50592878	    -11.55157820	    101.10936850	      1.76469138	     31.84048461	    -13.08128752	     -7.49999987	    112.45256796	    -28.38282752	     12.57062549	     98.98152743	      1.72755355	     25.70169594	     17.05572230	     -7.49999987	    -38.35145381	      3.99845157	      6.43086161	     98.50230169	    -11.34669106	     20.89878124	    104.14237236	     99.26126747	     89.02034942	     -5.90187961	     21.04604503	    109.20629391	    105.50754560
      7.09000000	    -32.27246290	     -3.99309415	     -4.32075410	     -0.36612841	      0.63599416	     -0.57739822	    102.75616163	     -5.42277446	    -11.58392482	    100.52272605	      1.75445254	     31.76371812	    -13.12953303	     -7.49999987	    111.78650978	    -28.36787952	     12.26710585	     98.32169650	      1.71603733	     25.60253055	     17.04345116	     -7.49999987	    -38.12214914	      3.98203092	      6.35117166	     97.96962523	    -11.42486363	     20.83297848	    104.33365054	     99.30978993	     88.58294080	     -6.00021836	     21.14789353	    109.37508808	    105.55895492
      7.10000000	    -32.24973921	     -3.91872332	     -3.99669377	     -0.36571903	      0.64041355	     -0.57719438	    102.25545301	     -5.51211411	    -11.42010246	     99.93627320	      1.74421701	     31.60891585	    -13.35723466	     -7.49999987	    110.97750782	    -28.07624812	     11.72996306	     97.57939828	      1.70308178	     25.40029837	     16.91440890	     -7.49999987	    -37.86948420	      3.99527187	      5.97586134	     97.35139860	    -11.40242933	     20.52412070	    104.64131000	     99.39782202	     88.20059506	     -6.16636223	     21.21265557	    109.63213021	    105.65867796
      7.11000000	    -32.23400255	     -4.01695423	     -3.82180026	     -0.36537641	      0.64490923	     -0.57682208	    101.67258759	     -5.43880560	    -11.42239392	     99.22892257	      1.73187141	     31.52353501	    -13.31542377	     -7.49999987	    110.34761871	    -27.89641663	     11.51236054	     96.89578388	      1.69115046	     25.32370698	     16.90530883	     -7.49999987	    -37.56032429	      4.15151928	      5.98169950	     96.83443249	    -11.54442196	     20.60096049	    104.64764750	     99.41711457	     87.73510382	     -6.26439526	     21.31555263	    109.71703887	    105.68542115
      7.12000000	    -32.34582450	     -3.98441164	     -3.37957574	     -0.36519188	      0.64968134	     -0.57681880	    101.23630927	     -5.68279656	    -11.33707479	     98.54011171	      1.71984939	     31.34669116	    -13.52136725	     -7.49999987	    109.58795929	    -27.40176169	     10.98590927	     95.95866470	      1.67479464	     25.03228889	     16.64317640	     -7.49999987	    -37.17875528	      4.30077909	      5.60416771	     96.36125173	    -11.61683664	     20.54746485	    104.98267029	     99.53399976	     87.33078930	     -6.35061680	     21.35462044	    109.93842398	    105.76797104
      7.13000000	    -32.35490574	     -4.07600813	     -3.22245621	     -0.36481980	      0.65472568	     -0.57633177	    100.62112512	     -5.58536536	    -11.38207145	     97.75476798	      1.70614256	     31.24082748	    -13.51586128	     -7.49999987	    108.89857764	    -27.27748066	     10.69812908	     95.12814705	      1.66029938	     24.90020116	     16.57512158	     -7.49999987	    -36.83445352	      4.42243019	      5.55146719	     95.80556741	    -11.71545128	     20.58726087	    105.03961891	     99.56853913	     86.81753349	     -6.46984182	     21.45720038	    110.02097003	    105.80454693
      7.14000000	    -32.36227420	     -4.18186883	     -3.02250366	     -0.36441381	      0.65995437	     -0.57598868	     99.97152292	     -5.50163610	    -11.40637167	     96.93540568	      1.69184199	     31.14500988	    -13.50584014	     -7.49999987	    108.19618273	    -27.08300623	     10.41518355	     94.30209013	      1.64588196	     24.77064974	     16.53960596	     -7.49999987	    -36.48883340	      4.60221067	      5.50014285	     95.24451053	    -11.82739186	     20.59135480	    105.12566636	     99.59168644	     86.30856965	     -6.61748043	     21.52934280	    110.12472788	    105.83536279
      7.15000000	    -32.47243055	     -4.08049649	     -2.64854193	     -0.36411983	      0.66525574	     -0.57580174	     99.51152810	     -5.63953759	    -11.25703855	     96.14479246	      1.67804319	     30.58167848	    -14.13065287	     -7.49999987	    107.35767383	    -26.70323024	      9.75735023	     93.27374416	      1.62793394	     24.18540755	     15.77745862	     -7.49999987	    -36.04076297	      4.62945040	      5.01271105	     94.54507819	    -11.62356046	     20.21487597	    105.37642910	     99.79833037	     85.88837347	     -6.89891602	     21.61711785	    110.41397606	    106.03162272
      7.16000000	    -32.45388056	     -4.21289415	     -2.57544081	     -0.36353803	      0.67071925	     -0.57503581	     98.79367284	     -5.44612661	    -11.38984329	     95.27362026	      1.66283836	     30.48796107	    -14.09352322	     -7.49999987	    106.63421829	    -26.68174366	      9.55758056	     92.40472097	      1.61276663	     24.08944475	     15.80142630	     -7.49999987	    -35.70393936	      4.73577272	      5.06451910	     93.98300115	    -11.73825195	     20.26960574	    105.47943662	     99.83418002	     85.35721648	     -7.01808740	     21.68842032	    110.50184942	    106.06228856
      7.17000000	    -32.42292703	     -4.32721933	     -2.51548367	     -0.36290430	      0.67625824	     -0.57419329	     98.05565548	     -5.22373376	    -11.50286798	     94.36955141	      1.64705939	     30.39391940	    -14.07059637	     -7.49999987	    105.88679807	    -26.68710730	      9.32987353	     91.53399431	      1.59756958	     23.97129416	     15.82684708	     -7.49999987	    -35.36423622	      4.81936614	      5.12168759	     93.36934754	    -11.84909864	     20.29472031	    105.60825650	     99.86489981	     84.81661314	     -7.15680438	     21.74540606	    110.60684447	    106.09028408
      7.18000000	    -32.40703043	     -4.40804182	     -2.41415845	     -0.36235075	      0.68192243	     -0.57353784	     97.32416999	     -5.07637633	    -11.61482522	     93.43473982	      1.63074385	     30.27285561	    -14.11484771	     -7.49999987	    105.09722495	    -26.65532508	      9.01607926	     90.58820289	      1.58106240	     23.78824478	     15.84512579	     -7.49999987	    -35.03536369	      4.89242951	      5.10812722	     92.77620849	    -11.90950796	     20.23381040	    105.85338430	     99.90605452	     84.28966135	     -7.26009165	     21.79438786	    110.74536251	    106.12447621
      7.19000000	    -32.39450785	     -4.46384103	     -2.21091191	     -0.36183575	      0.68766674	     -0.57320170	     96.59561038	     -5.05779496	    -11.67859503	     92.48905697	      1.61423857	     30.12294939	    -14.17280271	     -7.49999987	    104.26270071	    -26.48887659	      8.63989110	     89.59863307	      1.56379115	     23.57106001	     15.84718616	     -7.49999987	    -34.67482666	      4.99744412	      5.00483259	     92.15683989	    -11.98539670	     20.14612083	    106.09420323	     99.94502825	     83.72403556	     -7.36337469	     21.86553142	    110.86386480	    106.15574968
      7.20000000	    -32.37635838	     -4.53366879	     -2.01667387	     -0.36124244	      0.69331270	     -0.57294109	     95.85601695	     -4.99876481	    -11.67816701	     91.54703399	      1.59779716	     29.99208879	    -14.17400441	     -7.49999987	    103.48808289	    -26.34208683	      8.27016661	     88.70896017	      1.54826343	     23.39400057	     15.85427885	     -7.49999987	    -34.28529687	      5.16798793	      4.96673827	     91.50150643	    -12.09023010	     20.11343497	    106.22718740	     99.97044070	     83.15284666	     -7.50377625	     21.93863500	    110.94644899	    106.17734601
